PathFileType	4	(X/Y/Z)	 control3min.trc
DataRate	CameraRate	NumFrames	NumMarkers	Units	OrigDataRate	OrigDataStartFrame	OrigNumFrames
200	200	7	43	m	200	1	1000
Frame#	Time	C7			LSH			RSH			MAN			RASI			LASI			HIPR			HIPL			RPSI			LPSI			COX			RTHI1			RTHI2			RTHI3			RTHI4			RLKN			RMKN			RSHA1			RSHA2			RSHA3			RSHA4			RLMAL			RMMAL			RHEEL			RMET5			RMET1			RTOE			LTHI1			LTHI2			LTHI3			LTHI4			LLKN			LMKN			LSHA1			LSHA2			LSHA3			LSHA4			LLMAL			LMMAL			LHEEL			LMET5			LMET1			LTOE			
		X1	Y1	Z1	X2	Y2	Z2	X3	Y3	Z3	X4	Y4	Z4	X5	Y5	Z5	X6	Y6	Z6	X7	Y7	Z7	X8	Y8	Z8	X9	Y9	Z9	X10	Y10	Z10	X11	Y11	Z11	X12	Y12	Z12	X13	Y13	Z13	X14	Y14	Z14	X15	Y15	Z15	X16	Y16	Z16	X17	Y17	Z17	X18	Y18	Z18	X19	Y19	Z19	X20	Y20	Z20	X21	Y21	Z21	X22	Y22	Z22	X23	Y23	Z23	X24	Y24	Z24	X25	Y25	Z25	X26	Y26	Z26	X27	Y27	Z27	X28	Y28	Z28	X29	Y29	Z29	X30	Y30	Z30	X31	Y31	Z31	X32	Y32	Z32	X33	Y33	Z33	X34	Y34	Z34	X35	Y35	Z35	X36	Y36	Z36	X37	Y37	Z37	X38	Y38	Z38	X39	Y39	Z39	X40	Y40	Z40	X41	Y41	Z41	X42	Y42	Z42	X43	Y43	Z43	
1	0.0050	-0.282968	1.424654	-0.462913	-0.208801	1.394927	-0.669665	-0.184999	1.367467	-0.278243	-0.146412	1.331532	-0.478104	-0.149833	0.898697	-0.348508	-0.166223	0.909848	-0.620426	-0.257259	0.939373	-0.309228	-0.264366	0.943501	-0.644107	-0.344929	0.935552	-0.422512	-0.351190	0.929435	-0.518592	-0.351534	0.929682	-0.468925	-0.164352	0.644623	-0.276970	-0.139984	0.589917	-0.277633	-0.079843	0.612337	-0.286722	-0.096710	0.671666	-0.286050	-0.089168	0.413123	-0.287698	-0.085055	0.381811	-0.396815	-0.225110	0.276851	-0.264747	-0.250323	0.243747	-0.272449	-0.179620	0.249084	-0.263326	-0.199002	0.213737	-0.265285	-0.326089	0.088730	-0.280027	-0.291209	0.076755	-0.362481	-0.380956	0.069690	-0.332561	-0.231723	0.036298	-0.228515	-0.175746	0.045060	-0.304841	-0.151022	0.037199	-0.302610	-0.204445	0.654974	-0.690377	-0.180383	0.598654	-0.697147	-0.119394	0.618683	-0.704299	-0.135933	0.676194	-0.699340	-0.130457	0.414373	-0.702862	-0.109646	0.387884	-0.593160	-0.260423	0.270263	-0.703747	-0.281996	0.237439	-0.693651	-0.229108	0.206450	-0.699998	-0.212990	0.245901	-0.711478	-0.346255	0.084290	-0.681466	-0.311640	0.089219	-0.600021	-0.400848	0.075364	-0.623061	-0.258292	0.035562	-0.735579	-0.198077	0.045651	-0.664817	-0.172437	0.038543	-0.676642	
2	0.0100	-0.282912	1.424565	-0.462801	-0.208678	1.394810	-0.669655	-0.185280	1.367339	-0.277953	-0.146472	1.331500	-0.477789	-0.149637	0.898663	-0.348016	-0.166277	0.910607	-0.619325	-0.256628	0.940863	-0.309058	-0.263647	0.945792	-0.643333	-0.344760	0.935816	-0.422108	-0.351068	0.929886	-0.518576	-0.351418	0.929839	-0.468714	-0.163682	0.644858	-0.276583	-0.139299	0.590126	-0.277280	-0.079105	0.612598	-0.286598	-0.095969	0.671918	-0.285975	-0.088033	0.413123	-0.287964	-0.084730	0.382042	-0.396938	-0.224292	0.277011	-0.264167	-0.249610	0.243874	-0.272192	-0.178528	0.248748	-0.263432	-0.198057	0.213378	-0.266272	-0.325735	0.088817	-0.279886	-0.291129	0.077084	-0.362355	-0.380993	0.070134	-0.332687	-0.231658	0.036217	-0.228548	-0.175649	0.045123	-0.304808	-0.150858	0.037119	-0.302640	-0.204327	0.655109	-0.690237	-0.180238	0.598799	-0.696961	-0.119161	0.619032	-0.704327	-0.135857	0.676498	-0.699242	-0.129518	0.414861	-0.703067	-0.109021	0.388046	-0.593699	-0.259726	0.270693	-0.704562	-0.281369	0.237992	-0.694458	-0.228551	0.206746	-0.700341	-0.212254	0.246233	-0.711877	-0.345991	0.084807	-0.682011	-0.311712	0.089945	-0.600528	-0.400747	0.076158	-0.623803	-0.258201	0.035500	-0.735762	-0.198015	0.045564	-0.664906	-0.172391	0.038479	-0.676620	
3	0.0150	-0.282959	1.424984	-0.462689	-0.208479	1.395271	-0.669540	-0.185505	1.367824	-0.277641	-0.146549	1.331963	-0.477489	-0.149409	0.899522	-0.347993	-0.166223	0.912044	-0.618072	-0.255601	0.942938	-0.308995	-0.262747	0.947957	-0.642531	-0.344460	0.936417	-0.421745	-0.350777	0.930599	-0.518599	-0.351157	0.930354	-0.468550	-0.163136	0.645232	-0.276180	-0.138802	0.590490	-0.276960	-0.078580	0.612975	-0.286410	-0.095421	0.672265	-0.285867	-0.087032	0.413062	-0.287854	-0.084926	0.382756	-0.397060	-0.223900	0.277272	-0.263590	-0.249208	0.244084	-0.271868	-0.177880	0.248717	-0.263508	-0.197513	0.213304	-0.266760	-0.325444	0.088820	-0.279789	-0.291117	0.077380	-0.362274	-0.381041	0.070502	-0.332873	-0.231658	0.036191	-0.228561	-0.175600	0.045178	-0.304776	-0.150758	0.037070	-0.302646	-0.204145	0.655639	-0.690151	-0.180045	0.599354	-0.696944	-0.118869	0.619663	-0.704304	-0.135657	0.677113	-0.699107	-0.128840	0.415527	-0.703189	-0.108800	0.388634	-0.593940	-0.259246	0.271180	-0.705196	-0.280954	0.238561	-0.695129	-0.228115	0.207198	-0.700569	-0.211729	0.246698	-0.712138	-0.345800	0.085373	-0.682377	-0.311706	0.090609	-0.600977	-0.400627	0.076976	-0.624354	-0.258127	0.035455	-0.735895	-0.197977	0.045501	-0.665014	-0.172360	0.038437	-0.676661	
4	0.0200	-0.283033	1.425510	-0.462576	-0.208299	1.395859	-0.669411	-0.185749	1.368464	-0.277340	-0.146635	1.332554	-0.477193	-0.149170	0.900548	-0.348039	-0.166130	0.913583	-0.616844	-0.254555	0.945024	-0.308937	-0.261825	0.950068	-0.641753	-0.344124	0.937105	-0.421376	-0.350451	0.931397	-0.518588	-0.350853	0.930959	-0.468364	-0.162647	0.645675	-0.275794	-0.138366	0.590905	-0.276653	-0.078117	0.613387	-0.286219	-0.094910	0.672656	-0.285744	-0.086474	0.413249	-0.287794	-0.085336	0.383495	-0.397216	-0.223617	0.277580	-0.263067	-0.248931	0.244341	-0.271595	-0.177405	0.248782	-0.263512	-0.197085	0.213322	-0.267163	-0.325244	0.088895	-0.279760	-0.291097	0.077678	-0.362193	-0.381078	0.070858	-0.333024	-0.231655	0.036153	-0.228584	-0.175550	0.045228	-0.304745	-0.150659	0.037019	-0.302650	-0.203962	0.656267	-0.690066	-0.179867	0.599990	-0.696903	-0.118590	0.620366	-0.704266	-0.135453	0.677802	-0.698966	-0.128265	0.416243	-0.703298	-0.108728	0.389273	-0.594154	-0.258851	0.271708	-0.705743	-0.280604	0.239163	-0.695719	-0.227740	0.207704	-0.700767	-0.211286	0.247214	-0.712366	-0.345613	0.085940	-0.682701	-0.311674	0.091283	-0.601381	-0.400490	0.077787	-0.624832	-0.258059	0.035420	-0.736006	-0.197929	0.045441	-0.665114	-0.172319	0.038399	-0.676698	
5	0.0250	-0.283200	1.426414	-0.462455	-0.208119	1.396883	-0.669223	-0.185990	1.369573	-0.277040	-0.146744	1.333541	-0.476908	-0.148898	0.902177	-0.348366	-0.165939	0.915547	-0.615597	-0.253318	0.947376	-0.308929	-0.260797	0.952095	-0.641009	-0.343681	0.938069	-0.421016	-0.350007	0.932424	-0.518537	-0.350433	0.931855	-0.468167	-0.162303	0.646288	-0.275423	-0.138117	0.591471	-0.276374	-0.077845	0.613914	-0.285996	-0.094549	0.673169	-0.285585	-0.086628	0.413731	-0.287771	-0.086031	0.384284	-0.397263	-0.223701	0.277984	-0.262586	-0.248943	0.244680	-0.271351	-0.177324	0.249097	-0.263457	-0.196978	0.213567	-0.267295	-0.325161	0.089006	-0.279804	-0.291091	0.077981	-0.362135	-0.381091	0.071162	-0.333173	-0.231688	0.036127	-0.228603	-0.175521	0.045268	-0.304715	-0.150595	0.036987	-0.302641	-0.203755	0.657207	-0.689995	-0.179695	0.600926	-0.696910	-0.118317	0.621291	-0.704181	-0.135195	0.678732	-0.698797	-0.127957	0.417117	-0.703348	-0.109011	0.390176	-0.594193	-0.258670	0.272321	-0.706090	-0.280441	0.239817	-0.696128	-0.227505	0.208358	-0.700876	-0.211049	0.247872	-0.712493	-0.345459	0.086537	-0.682892	-0.311570	0.091956	-0.601696	-0.400318	0.078597	-0.625124	-0.258008	0.035403	-0.736062	-0.197880	0.045394	-0.665211	-0.172279	0.038377	-0.676757	
6	0.0300	-0.283447	1.427620	-0.462319	-0.207994	1.398250	-0.668992	-0.186267	1.371084	-0.276777	-0.146873	1.334886	-0.476633	-0.148582	0.904225	-0.348847	-0.165639	0.917768	-0.614438	-0.252029	0.949774	-0.308933	-0.259712	0.954050	-0.640329	-0.343145	0.939291	-0.420644	-0.349472	0.933685	-0.518392	-0.349908	0.933006	-0.467906	-0.162099	0.647113	-0.275104	-0.138059	0.592212	-0.276131	-0.077731	0.614579	-0.285780	-0.094299	0.673852	-0.285389	-0.086957	0.413950	-0.287480	-0.086841	0.385112	-0.397099	-0.224033	0.278521	-0.262282	-0.249277	0.245150	-0.271215	-0.177596	0.249634	-0.263313	-0.197128	0.214033	-0.267285	-0.325246	0.089249	-0.279944	-0.291069	0.078314	-0.362080	-0.381056	0.071460	-0.333266	-0.231719	0.036084	-0.228645	-0.175475	0.045287	-0.304689	-0.150539	0.036966	-0.302632	-0.203559	0.658405	-0.689921	-0.179574	0.602090	-0.696874	-0.118101	0.622406	-0.704044	-0.134935	0.679867	-0.698608	-0.127948	0.418136	-0.703338	-0.109557	0.391300	-0.594115	-0.258716	0.273057	-0.706233	-0.280453	0.240553	-0.696310	-0.227440	0.209149	-0.700914	-0.211034	0.248688	-0.712539	-0.345311	0.087154	-0.682979	-0.311390	0.092640	-0.601893	-0.400100	0.079399	-0.625238	-0.257970	0.035415	-0.736059	-0.197802	0.045355	-0.665288	-0.172216	0.038375	-0.676810	
7	0.0350	-0.283772	1.429169	-0.462166	-0.207935	1.400014	-0.668719	-0.186568	1.373023	-0.276526	-0.147037	1.336628	-0.476368	-0.148215	0.906682	-0.349449	-0.165221	0.920254	-0.613394	-0.250673	0.952248	-0.308938	-0.258562	0.956031	-0.639755	-0.342503	0.940792	-0.420241	-0.348850	0.935202	-0.518151	-0.349263	0.934436	-0.467579	-0.162081	0.648208	-0.274829	-0.138218	0.593189	-0.275915	-0.077827	0.615415	-0.285536	-0.094202	0.674732	-0.285154	-0.088149	0.414493	-0.286984	-0.087659	0.386083	-0.396836	-0.224679	0.279190	-0.262103	-0.249919	0.245753	-0.271167	-0.178233	0.250418	-0.263108	-0.197572	0.214740	-0.267129	-0.325410	0.089579	-0.280117	-0.291027	0.078685	-0.362027	-0.380979	0.071741	-0.333319	-0.231767	0.036035	-0.228697	-0.175429	0.045297	-0.304664	-0.150507	0.036967	-0.302619	-0.203385	0.659902	-0.689820	-0.179517	0.603533	-0.696813	-0.117954	0.623735	-0.703859	-0.134685	0.681229	-0.698395	-0.128282	0.419339	-0.703269	-0.110413	0.392628	-0.593923	-0.259008	0.273938	-0.706171	-0.280671	0.241396	-0.696280	-0.227569	0.210118	-0.700877	-0.211262	0.249685	-0.712499	-0.345182	0.087799	-0.682948	-0.311138	0.093357	-0.601988	-0.399837	0.080204	-0.625171	-0.257962	0.035444	-0.735984	-0.197717	0.045323	-0.665347	-0.172154	0.038383	-0.676857	
